<mxfile host="app.diagrams.net" modified="2023-05-30T21:35:04.487Z" agent="Mozilla/5.0 (Windows NT 10.0; Win64; x64) AppleWebKit/537.36 (KHTML, like Gecko) Chrome/113.0.0.0 Safari/537.36" etag="O6apLJh0uAeIkb_cuA20" version="21.3.6" type="github">
  <diagram name="PÃ¡gina-1" id="_RoMcr8amoSXHCxuIZkm">
    <mxGraphModel dx="741" dy="750" grid="1" gridSize="10" guides="1" tooltips="1" connect="1" arrows="1" fold="1" page="1" pageScale="1" pageWidth="827" pageHeight="1169" math="0" shadow="0">
      <root>
        <mxCell id="0" />
        <mxCell id="1" parent="0" />
        <mxCell id="qncwGYhHubf92thfQxkc-8" style="edgeStyle=orthogonalEdgeStyle;rounded=0;orthogonalLoop=1;jettySize=auto;html=1;exitX=1;exitY=0.5;exitDx=0;exitDy=0;entryX=0;entryY=0.5;entryDx=0;entryDy=0;startArrow=none;startFill=0;endArrow=none;endFill=0;" edge="1" parent="1" source="qncwGYhHubf92thfQxkc-1" target="qncwGYhHubf92thfQxkc-5">
          <mxGeometry relative="1" as="geometry" />
        </mxCell>
        <mxCell id="qncwGYhHubf92thfQxkc-9" style="edgeStyle=orthogonalEdgeStyle;rounded=0;orthogonalLoop=1;jettySize=auto;html=1;exitX=1;exitY=0.5;exitDx=0;exitDy=0;entryX=0;entryY=0.5;entryDx=0;entryDy=0;endArrow=none;endFill=0;" edge="1" parent="1" source="qncwGYhHubf92thfQxkc-1" target="qncwGYhHubf92thfQxkc-7">
          <mxGeometry relative="1" as="geometry" />
        </mxCell>
        <mxCell id="qncwGYhHubf92thfQxkc-14" style="edgeStyle=orthogonalEdgeStyle;rounded=0;orthogonalLoop=1;jettySize=auto;html=1;exitX=1;exitY=0.5;exitDx=0;exitDy=0;entryX=0;entryY=0.5;entryDx=0;entryDy=0;endArrow=none;endFill=0;" edge="1" parent="1" source="qncwGYhHubf92thfQxkc-1" target="qncwGYhHubf92thfQxkc-10">
          <mxGeometry relative="1" as="geometry" />
        </mxCell>
        <mxCell id="qncwGYhHubf92thfQxkc-15" style="edgeStyle=orthogonalEdgeStyle;rounded=0;orthogonalLoop=1;jettySize=auto;html=1;exitX=1;exitY=0.5;exitDx=0;exitDy=0;entryX=0;entryY=0.5;entryDx=0;entryDy=0;endArrow=none;endFill=0;" edge="1" parent="1" source="qncwGYhHubf92thfQxkc-1" target="qncwGYhHubf92thfQxkc-11">
          <mxGeometry relative="1" as="geometry" />
        </mxCell>
        <mxCell id="qncwGYhHubf92thfQxkc-16" style="edgeStyle=orthogonalEdgeStyle;rounded=0;orthogonalLoop=1;jettySize=auto;html=1;exitX=1;exitY=0.5;exitDx=0;exitDy=0;entryX=0;entryY=0.5;entryDx=0;entryDy=0;endArrow=none;endFill=0;" edge="1" parent="1" source="qncwGYhHubf92thfQxkc-1" target="qncwGYhHubf92thfQxkc-12">
          <mxGeometry relative="1" as="geometry" />
        </mxCell>
        <mxCell id="qncwGYhHubf92thfQxkc-17" style="edgeStyle=orthogonalEdgeStyle;rounded=0;orthogonalLoop=1;jettySize=auto;html=1;exitX=1;exitY=0.5;exitDx=0;exitDy=0;entryX=0;entryY=0.5;entryDx=0;entryDy=0;endArrow=none;endFill=0;" edge="1" parent="1" source="qncwGYhHubf92thfQxkc-1" target="qncwGYhHubf92thfQxkc-13">
          <mxGeometry relative="1" as="geometry" />
        </mxCell>
        <mxCell id="qncwGYhHubf92thfQxkc-1" value="aluno" style="rounded=0;whiteSpace=wrap;html=1;" vertex="1" parent="1">
          <mxGeometry x="20" y="300" width="120" height="60" as="geometry" />
        </mxCell>
        <mxCell id="qncwGYhHubf92thfQxkc-33" style="edgeStyle=orthogonalEdgeStyle;rounded=0;orthogonalLoop=1;jettySize=auto;html=1;exitX=1;exitY=0.5;exitDx=0;exitDy=0;entryX=0;entryY=0.5;entryDx=0;entryDy=0;endArrow=none;endFill=0;" edge="1" parent="1" source="qncwGYhHubf92thfQxkc-2" target="qncwGYhHubf92thfQxkc-24">
          <mxGeometry relative="1" as="geometry" />
        </mxCell>
        <mxCell id="qncwGYhHubf92thfQxkc-34" style="edgeStyle=orthogonalEdgeStyle;rounded=0;orthogonalLoop=1;jettySize=auto;html=1;exitX=1;exitY=0.5;exitDx=0;exitDy=0;entryX=0;entryY=0.5;entryDx=0;entryDy=0;endArrow=none;endFill=0;" edge="1" parent="1" source="qncwGYhHubf92thfQxkc-2" target="qncwGYhHubf92thfQxkc-25">
          <mxGeometry relative="1" as="geometry" />
        </mxCell>
        <mxCell id="qncwGYhHubf92thfQxkc-35" style="edgeStyle=orthogonalEdgeStyle;rounded=0;orthogonalLoop=1;jettySize=auto;html=1;exitX=1;exitY=0.5;exitDx=0;exitDy=0;entryX=0;entryY=0.5;entryDx=0;entryDy=0;endArrow=none;endFill=0;" edge="1" parent="1" source="qncwGYhHubf92thfQxkc-2" target="qncwGYhHubf92thfQxkc-26">
          <mxGeometry relative="1" as="geometry" />
        </mxCell>
        <mxCell id="qncwGYhHubf92thfQxkc-36" style="edgeStyle=orthogonalEdgeStyle;rounded=0;orthogonalLoop=1;jettySize=auto;html=1;exitX=1;exitY=0.5;exitDx=0;exitDy=0;entryX=0;entryY=0.75;entryDx=0;entryDy=0;entryPerimeter=0;endArrow=none;endFill=0;" edge="1" parent="1" source="qncwGYhHubf92thfQxkc-2" target="qncwGYhHubf92thfQxkc-27">
          <mxGeometry relative="1" as="geometry" />
        </mxCell>
        <mxCell id="qncwGYhHubf92thfQxkc-37" style="edgeStyle=orthogonalEdgeStyle;rounded=0;orthogonalLoop=1;jettySize=auto;html=1;exitX=1;exitY=0.5;exitDx=0;exitDy=0;entryX=0;entryY=0.75;entryDx=0;entryDy=0;entryPerimeter=0;endArrow=none;endFill=0;" edge="1" parent="1" source="qncwGYhHubf92thfQxkc-2" target="qncwGYhHubf92thfQxkc-28">
          <mxGeometry relative="1" as="geometry" />
        </mxCell>
        <mxCell id="qncwGYhHubf92thfQxkc-38" style="edgeStyle=orthogonalEdgeStyle;rounded=0;orthogonalLoop=1;jettySize=auto;html=1;exitX=1;exitY=0.5;exitDx=0;exitDy=0;entryX=0;entryY=0.5;entryDx=0;entryDy=0;endArrow=none;endFill=0;" edge="1" parent="1" source="qncwGYhHubf92thfQxkc-2" target="qncwGYhHubf92thfQxkc-29">
          <mxGeometry relative="1" as="geometry" />
        </mxCell>
        <mxCell id="qncwGYhHubf92thfQxkc-39" style="edgeStyle=orthogonalEdgeStyle;rounded=0;orthogonalLoop=1;jettySize=auto;html=1;exitX=1;exitY=0.5;exitDx=0;exitDy=0;entryX=0;entryY=0.75;entryDx=0;entryDy=0;entryPerimeter=0;endArrow=none;endFill=0;" edge="1" parent="1" source="qncwGYhHubf92thfQxkc-2" target="qncwGYhHubf92thfQxkc-30">
          <mxGeometry relative="1" as="geometry" />
        </mxCell>
        <mxCell id="qncwGYhHubf92thfQxkc-62" style="edgeStyle=orthogonalEdgeStyle;rounded=0;orthogonalLoop=1;jettySize=auto;html=1;exitX=0.75;exitY=0;exitDx=0;exitDy=0;entryX=0.5;entryY=1;entryDx=0;entryDy=0;endArrow=none;endFill=0;" edge="1" parent="1" source="qncwGYhHubf92thfQxkc-2" target="qncwGYhHubf92thfQxkc-61">
          <mxGeometry relative="1" as="geometry" />
        </mxCell>
        <mxCell id="qncwGYhHubf92thfQxkc-2" value="pagamento" style="rounded=0;whiteSpace=wrap;html=1;" vertex="1" parent="1">
          <mxGeometry x="20" y="570" width="120" height="60" as="geometry" />
        </mxCell>
        <mxCell id="qncwGYhHubf92thfQxkc-48" style="edgeStyle=orthogonalEdgeStyle;rounded=0;orthogonalLoop=1;jettySize=auto;html=1;exitX=1;exitY=0.5;exitDx=0;exitDy=0;entryX=0.011;entryY=0.3;entryDx=0;entryDy=0;entryPerimeter=0;endArrow=none;endFill=0;" edge="1" parent="1" source="qncwGYhHubf92thfQxkc-3" target="qncwGYhHubf92thfQxkc-40">
          <mxGeometry relative="1" as="geometry" />
        </mxCell>
        <mxCell id="qncwGYhHubf92thfQxkc-49" style="edgeStyle=orthogonalEdgeStyle;rounded=0;orthogonalLoop=1;jettySize=auto;html=1;exitX=1;exitY=0.5;exitDx=0;exitDy=0;entryX=0;entryY=0.5;entryDx=0;entryDy=0;endArrow=none;endFill=0;" edge="1" parent="1" source="qncwGYhHubf92thfQxkc-3" target="qncwGYhHubf92thfQxkc-41">
          <mxGeometry relative="1" as="geometry" />
        </mxCell>
        <mxCell id="qncwGYhHubf92thfQxkc-50" style="edgeStyle=orthogonalEdgeStyle;rounded=0;orthogonalLoop=1;jettySize=auto;html=1;exitX=1;exitY=0.5;exitDx=0;exitDy=0;endArrow=none;endFill=0;" edge="1" parent="1" source="qncwGYhHubf92thfQxkc-3" target="qncwGYhHubf92thfQxkc-42">
          <mxGeometry relative="1" as="geometry" />
        </mxCell>
        <mxCell id="qncwGYhHubf92thfQxkc-51" style="edgeStyle=orthogonalEdgeStyle;rounded=0;orthogonalLoop=1;jettySize=auto;html=1;exitX=1;exitY=0.5;exitDx=0;exitDy=0;entryX=0;entryY=0.725;entryDx=0;entryDy=0;entryPerimeter=0;endArrow=none;endFill=0;" edge="1" parent="1" source="qncwGYhHubf92thfQxkc-3" target="qncwGYhHubf92thfQxkc-43">
          <mxGeometry relative="1" as="geometry" />
        </mxCell>
        <mxCell id="qncwGYhHubf92thfQxkc-52" style="edgeStyle=orthogonalEdgeStyle;rounded=0;orthogonalLoop=1;jettySize=auto;html=1;exitX=1;exitY=0.5;exitDx=0;exitDy=0;entryX=0;entryY=0.5;entryDx=0;entryDy=0;endArrow=none;endFill=0;" edge="1" parent="1" source="qncwGYhHubf92thfQxkc-3" target="qncwGYhHubf92thfQxkc-44">
          <mxGeometry relative="1" as="geometry" />
        </mxCell>
        <mxCell id="qncwGYhHubf92thfQxkc-3" value="pacote" style="rounded=0;whiteSpace=wrap;html=1;" vertex="1" parent="1">
          <mxGeometry x="350" y="300" width="120" height="60" as="geometry" />
        </mxCell>
        <mxCell id="qncwGYhHubf92thfQxkc-53" style="edgeStyle=orthogonalEdgeStyle;rounded=0;orthogonalLoop=1;jettySize=auto;html=1;exitX=1;exitY=0.5;exitDx=0;exitDy=0;endArrow=none;endFill=0;" edge="1" parent="1" source="qncwGYhHubf92thfQxkc-4" target="qncwGYhHubf92thfQxkc-45">
          <mxGeometry relative="1" as="geometry" />
        </mxCell>
        <mxCell id="qncwGYhHubf92thfQxkc-54" style="edgeStyle=orthogonalEdgeStyle;rounded=0;orthogonalLoop=1;jettySize=auto;html=1;exitX=1;exitY=0.5;exitDx=0;exitDy=0;entryX=0;entryY=0.75;entryDx=0;entryDy=0;entryPerimeter=0;endArrow=none;endFill=0;" edge="1" parent="1" source="qncwGYhHubf92thfQxkc-4" target="qncwGYhHubf92thfQxkc-46">
          <mxGeometry relative="1" as="geometry" />
        </mxCell>
        <mxCell id="qncwGYhHubf92thfQxkc-55" style="edgeStyle=orthogonalEdgeStyle;rounded=0;orthogonalLoop=1;jettySize=auto;html=1;exitX=1;exitY=0.5;exitDx=0;exitDy=0;entryX=0;entryY=0.5;entryDx=0;entryDy=0;endArrow=none;endFill=0;" edge="1" parent="1" source="qncwGYhHubf92thfQxkc-4" target="qncwGYhHubf92thfQxkc-47">
          <mxGeometry relative="1" as="geometry" />
        </mxCell>
        <mxCell id="qncwGYhHubf92thfQxkc-4" value="curso" style="rounded=0;whiteSpace=wrap;html=1;" vertex="1" parent="1">
          <mxGeometry x="320" y="570" width="120" height="60" as="geometry" />
        </mxCell>
        <mxCell id="qncwGYhHubf92thfQxkc-5" value="&lt;u&gt;cod_aluno&lt;/u&gt;" style="ellipse;whiteSpace=wrap;html=1;" vertex="1" parent="1">
          <mxGeometry x="190" y="210" width="90" height="40" as="geometry" />
        </mxCell>
        <mxCell id="qncwGYhHubf92thfQxkc-7" value="nome" style="ellipse;whiteSpace=wrap;html=1;" vertex="1" parent="1">
          <mxGeometry x="190" y="260" width="90" height="40" as="geometry" />
        </mxCell>
        <mxCell id="qncwGYhHubf92thfQxkc-10" value="dt_nasc" style="ellipse;whiteSpace=wrap;html=1;" vertex="1" parent="1">
          <mxGeometry x="190" y="310" width="90" height="40" as="geometry" />
        </mxCell>
        <mxCell id="qncwGYhHubf92thfQxkc-11" value="telefone" style="ellipse;whiteSpace=wrap;html=1;" vertex="1" parent="1">
          <mxGeometry x="190" y="360" width="90" height="40" as="geometry" />
        </mxCell>
        <mxCell id="qncwGYhHubf92thfQxkc-12" value="endereco" style="ellipse;whiteSpace=wrap;html=1;" vertex="1" parent="1">
          <mxGeometry x="190" y="410" width="90" height="40" as="geometry" />
        </mxCell>
        <mxCell id="qncwGYhHubf92thfQxkc-13" value="cidade" style="ellipse;whiteSpace=wrap;html=1;" vertex="1" parent="1">
          <mxGeometry x="190" y="460" width="90" height="40" as="geometry" />
        </mxCell>
        <mxCell id="qncwGYhHubf92thfQxkc-24" value="&lt;u&gt;cod_pagamento&lt;/u&gt;" style="ellipse;whiteSpace=wrap;html=1;" vertex="1" parent="1">
          <mxGeometry x="200" y="570" width="90" height="40" as="geometry" />
        </mxCell>
        <mxCell id="qncwGYhHubf92thfQxkc-25" value="cod_pacote" style="ellipse;whiteSpace=wrap;html=1;" vertex="1" parent="1">
          <mxGeometry x="200" y="620" width="90" height="40" as="geometry" />
        </mxCell>
        <mxCell id="qncwGYhHubf92thfQxkc-26" value="cod_aluno" style="ellipse;whiteSpace=wrap;html=1;" vertex="1" parent="1">
          <mxGeometry x="200" y="670" width="90" height="40" as="geometry" />
        </mxCell>
        <mxCell id="qncwGYhHubf92thfQxkc-27" value="parcela" style="ellipse;whiteSpace=wrap;html=1;" vertex="1" parent="1">
          <mxGeometry x="200" y="720" width="90" height="40" as="geometry" />
        </mxCell>
        <mxCell id="qncwGYhHubf92thfQxkc-28" value="valor" style="ellipse;whiteSpace=wrap;html=1;" vertex="1" parent="1">
          <mxGeometry x="200" y="770" width="90" height="40" as="geometry" />
        </mxCell>
        <mxCell id="qncwGYhHubf92thfQxkc-29" value="dt_vencimento" style="ellipse;whiteSpace=wrap;html=1;" vertex="1" parent="1">
          <mxGeometry x="200" y="820" width="90" height="40" as="geometry" />
        </mxCell>
        <mxCell id="qncwGYhHubf92thfQxkc-30" value="dt_pagamento" style="ellipse;whiteSpace=wrap;html=1;" vertex="1" parent="1">
          <mxGeometry x="200" y="880" width="90" height="40" as="geometry" />
        </mxCell>
        <mxCell id="qncwGYhHubf92thfQxkc-40" value="&lt;u&gt;cod_pacote&lt;/u&gt;" style="ellipse;whiteSpace=wrap;html=1;" vertex="1" parent="1">
          <mxGeometry x="530" y="210" width="90" height="40" as="geometry" />
        </mxCell>
        <mxCell id="qncwGYhHubf92thfQxkc-41" value="nome" style="ellipse;whiteSpace=wrap;html=1;" vertex="1" parent="1">
          <mxGeometry x="530" y="260" width="90" height="40" as="geometry" />
        </mxCell>
        <mxCell id="qncwGYhHubf92thfQxkc-42" value="cod_curso" style="ellipse;whiteSpace=wrap;html=1;" vertex="1" parent="1">
          <mxGeometry x="530" y="310" width="90" height="40" as="geometry" />
        </mxCell>
        <mxCell id="qncwGYhHubf92thfQxkc-43" value="num_aulas" style="ellipse;whiteSpace=wrap;html=1;" vertex="1" parent="1">
          <mxGeometry x="530" y="360" width="90" height="40" as="geometry" />
        </mxCell>
        <mxCell id="qncwGYhHubf92thfQxkc-44" value="valor" style="ellipse;whiteSpace=wrap;html=1;" vertex="1" parent="1">
          <mxGeometry x="530" y="410" width="90" height="40" as="geometry" />
        </mxCell>
        <mxCell id="qncwGYhHubf92thfQxkc-45" value="cod_curso" style="ellipse;whiteSpace=wrap;html=1;" vertex="1" parent="1">
          <mxGeometry x="590" y="630" width="90" height="40" as="geometry" />
        </mxCell>
        <mxCell id="qncwGYhHubf92thfQxkc-46" value="nome" style="ellipse;whiteSpace=wrap;html=1;" vertex="1" parent="1">
          <mxGeometry x="590" y="680" width="90" height="40" as="geometry" />
        </mxCell>
        <mxCell id="qncwGYhHubf92thfQxkc-47" value="professor" style="ellipse;whiteSpace=wrap;html=1;" vertex="1" parent="1">
          <mxGeometry x="590" y="730" width="90" height="40" as="geometry" />
        </mxCell>
        <mxCell id="qncwGYhHubf92thfQxkc-57" style="edgeStyle=orthogonalEdgeStyle;rounded=0;orthogonalLoop=1;jettySize=auto;html=1;exitX=0.5;exitY=0;exitDx=0;exitDy=0;entryX=0.5;entryY=1;entryDx=0;entryDy=0;strokeWidth=1;endArrow=none;endFill=0;" edge="1" parent="1" source="qncwGYhHubf92thfQxkc-56" target="qncwGYhHubf92thfQxkc-1">
          <mxGeometry relative="1" as="geometry" />
        </mxCell>
        <mxCell id="qncwGYhHubf92thfQxkc-58" style="edgeStyle=orthogonalEdgeStyle;rounded=0;orthogonalLoop=1;jettySize=auto;html=1;exitX=0.5;exitY=1;exitDx=0;exitDy=0;entryX=0.5;entryY=0;entryDx=0;entryDy=0;endArrow=none;endFill=0;" edge="1" parent="1" source="qncwGYhHubf92thfQxkc-56" target="qncwGYhHubf92thfQxkc-2">
          <mxGeometry relative="1" as="geometry" />
        </mxCell>
        <mxCell id="qncwGYhHubf92thfQxkc-56" value="possui" style="rhombus;whiteSpace=wrap;html=1;" vertex="1" parent="1">
          <mxGeometry x="40" y="440" width="80" height="60" as="geometry" />
        </mxCell>
        <mxCell id="qncwGYhHubf92thfQxkc-59" value="1:1" style="text;html=1;strokeColor=none;fillColor=none;align=center;verticalAlign=middle;whiteSpace=wrap;rounded=0;" vertex="1" parent="1">
          <mxGeometry x="10" y="370" width="60" height="30" as="geometry" />
        </mxCell>
        <mxCell id="qncwGYhHubf92thfQxkc-60" value="1:N" style="text;html=1;strokeColor=none;fillColor=none;align=center;verticalAlign=middle;whiteSpace=wrap;rounded=0;" vertex="1" parent="1">
          <mxGeometry x="10" y="520" width="60" height="30" as="geometry" />
        </mxCell>
        <mxCell id="qncwGYhHubf92thfQxkc-61" value="possui" style="rhombus;whiteSpace=wrap;html=1;" vertex="1" parent="1">
          <mxGeometry x="380" y="460" width="80" height="60" as="geometry" />
        </mxCell>
        <mxCell id="qncwGYhHubf92thfQxkc-63" style="edgeStyle=orthogonalEdgeStyle;rounded=0;orthogonalLoop=1;jettySize=auto;html=1;exitX=0.5;exitY=0;exitDx=0;exitDy=0;entryX=0.592;entryY=1;entryDx=0;entryDy=0;endArrow=none;endFill=0;entryPerimeter=0;" edge="1" parent="1" source="qncwGYhHubf92thfQxkc-61" target="qncwGYhHubf92thfQxkc-3">
          <mxGeometry relative="1" as="geometry">
            <mxPoint x="120" y="410" as="sourcePoint" />
            <mxPoint x="430" y="360" as="targetPoint" />
          </mxGeometry>
        </mxCell>
        <mxCell id="qncwGYhHubf92thfQxkc-64" value="1:1" style="text;html=1;align=center;verticalAlign=middle;resizable=0;points=[];autosize=1;strokeColor=none;fillColor=none;" vertex="1" parent="1">
          <mxGeometry x="380" y="368" width="40" height="30" as="geometry" />
        </mxCell>
        <mxCell id="qncwGYhHubf92thfQxkc-65" value="1:N" style="text;html=1;align=center;verticalAlign=middle;resizable=0;points=[];autosize=1;strokeColor=none;fillColor=none;" vertex="1" parent="1">
          <mxGeometry x="120" y="538" width="40" height="30" as="geometry" />
        </mxCell>
        <mxCell id="qncwGYhHubf92thfQxkc-68" style="edgeStyle=orthogonalEdgeStyle;rounded=0;orthogonalLoop=1;jettySize=auto;html=1;exitX=0.5;exitY=0;exitDx=0;exitDy=0;entryX=0.1;entryY=-0.133;entryDx=0;entryDy=0;entryPerimeter=0;endArrow=none;endFill=0;" edge="1" parent="1" source="qncwGYhHubf92thfQxkc-66" target="qncwGYhHubf92thfQxkc-67">
          <mxGeometry relative="1" as="geometry" />
        </mxCell>
        <mxCell id="qncwGYhHubf92thfQxkc-69" style="edgeStyle=orthogonalEdgeStyle;rounded=0;orthogonalLoop=1;jettySize=auto;html=1;exitX=0.5;exitY=1;exitDx=0;exitDy=0;entryX=1;entryY=0.25;entryDx=0;entryDy=0;" edge="1" parent="1" source="qncwGYhHubf92thfQxkc-66" target="qncwGYhHubf92thfQxkc-4">
          <mxGeometry relative="1" as="geometry" />
        </mxCell>
        <mxCell id="qncwGYhHubf92thfQxkc-66" value="pertence" style="rhombus;whiteSpace=wrap;html=1;" vertex="1" parent="1">
          <mxGeometry x="490" y="510" width="80" height="50" as="geometry" />
        </mxCell>
        <mxCell id="qncwGYhHubf92thfQxkc-67" value="1:N" style="text;html=1;align=center;verticalAlign=middle;resizable=0;points=[];autosize=1;strokeColor=none;fillColor=none;" vertex="1" parent="1">
          <mxGeometry x="440" y="368" width="40" height="30" as="geometry" />
        </mxCell>
        <mxCell id="qncwGYhHubf92thfQxkc-70" value="1:1" style="text;html=1;align=center;verticalAlign=middle;resizable=0;points=[];autosize=1;strokeColor=none;fillColor=none;" vertex="1" parent="1">
          <mxGeometry x="550" y="568" width="40" height="30" as="geometry" />
        </mxCell>
      </root>
    </mxGraphModel>
  </diagram>
</mxfile>
